<!DOCTYPE svg PUBLIC "-//W3C//DTD SVG 1.1//EN" "http://www.w3.org/Graphics/SVG/1.1/DTD/svg11.dtd">
<!-- Uploaded to: SVG Repo, www.svgrepo.com, Transformed by: SVG Repo Mixer Tools -->
<svg width="64px" height="64px" viewBox="-6.96 -6.96 37.92 37.92" fill="none" xmlns="http://www.w3.org/2000/svg" stroke="#ffffff">
<g id="SVGRepo_bgCarrier" stroke-width="0" transform="translate(2.2799999999999994,2.2799999999999994), scale(0.81)">
<path transform="translate(-6.96, -6.96), scale(1.185)" d="M16,28.55812108889222C18.858242832148743,28.467761662667826,21.076484728355553,26.46377429671992,23.480011619606998,24.914330720313075C26.3651421545772,23.054419358066053,30.344125109634856,21.99510101022022,31.296479631955066,18.69718206897117C32.26806214419953,15.332678310107276,30.118949002459825,11.870801487153473,28.065920122333193,9.033737769350413C26.198579585096777,6.45327524480495,23.441040002251967,4.867723502347441,20.465790396443637,3.730341725753801C17.436645626148497,2.5723568448645926,14.164646855404918,1.4763433645980801,11.104492665547905,2.5497041418183812C8.02459248083371,3.629990902198988,5.783567423693878,6.354956041853763,4.467602578059607,9.341767244040959C3.257915917390763,12.08736161246854,3.6028019739470754,15.143009850049769,4.266875339557503,18.068866445651853C4.8966550865648735,20.843627973490477,5.991079106109452,23.5037891719785,8.11233014329284,25.40015888892781C10.289374964043732,27.346407493239703,13.08128558851562,28.650392241142903,16,28.55812108889222" fill="#5b81e4" strokewidth="0"/>
</g>
<g id="SVGRepo_tracerCarrier" stroke-linecap="round" stroke-linejoin="round" stroke="#CCCCCC" stroke-width="0.096"/>
<g id="SVGRepo_iconCarrier"> <path d="M5 6H19M5 10H19M5 14H19M5 18H19" stroke="#0b1366" stroke-width="1.536" stroke-linecap="round" stroke-linejoin="round"/> </g>
</svg>