<!DOCTYPE svg PUBLIC "-//W3C//DTD SVG 1.1//EN" "http://www.w3.org/Graphics/SVG/1.1/DTD/svg11.dtd">
<!-- Uploaded to: SVG Repo, www.svgrepo.com, Transformed by: SVG Repo Mixer Tools -->
<svg width="64px" height="64px" viewBox="-7.2 -7.2 38.40 38.40" fill="none" xmlns="http://www.w3.org/2000/svg" stroke="#ffffff">
<g id="SVGRepo_bgCarrier" stroke-width="0" transform="translate(2.2799999999999994,2.2799999999999994), scale(0.81)">
<path transform="translate(-7.2, -7.2), scale(1.2)" d="M16,29.71238549097496C18.76617600561794,29.59112719706697,20.6388504723328,27.07750434562186,23.012270536609535,25.65156238804206C25.70086968941956,24.036262004932837,29.311210989841918,23.566707953970727,30.812734972288645,20.812949347574573C32.3929947420937,17.914791214694628,31.880123573345095,14.310517492209497,30.91786621613101,11.15289144061158C29.94225871859065,7.951457201348806,28.351553715307055,4.640910112080744,25.40232503012472,3.058809818142757C22.571096544166263,1.5400101935678487,19.169405269200308,2.6235089410689394,16,3.150270062334396C13.35266866502041,3.590261513073318,10.990165010449045,4.581754508381303,8.623735550236095,5.847442970730707C5.840184052626993,7.336229800895595,2.069226897804791,8.154770229939919,1.0544781426515701,11.143905578068082C0.03985414690812217,14.132673423639702,2.438704511022448,17.12206209071075,3.835353217606306,19.95253333731596C5.027099988904336,22.36774695079818,6.425679920109422,24.60115562658349,8.526371371615197,26.286567324424613C10.717522909939307,28.044556310283003,13.19348351533226,29.835412153076106,16,29.71238549097496" fill="#5b81e4" strokewidth="0"/>
</g>
<g id="SVGRepo_tracerCarrier" stroke-linecap="round" stroke-linejoin="round"/>
<g id="SVGRepo_iconCarrier"> <path d="M8 8L16 16" stroke="#0b1366" stroke-width="1.536" stroke-linecap="round" stroke-linejoin="round"/> <path d="M16 8L8 16" stroke="#0b1366" stroke-width="1.536" stroke-linecap="round" stroke-linejoin="round"/> </g>
</svg>