<?xml version="1.0"?>
<svg width="31.68" height="31.68" xmlns="http://www.w3.org/2000/svg" xmlns:svg="http://www.w3.org/2000/svg" stroke-width="0.00024000000000000003">
 <g class="layer">
  <title>Layer 1</title>
  <g id="SVGRepo_bgCarrier" stroke-width="0" transform="matrix(1 0 0 1 0 0) rotate(-90.2988 50.9023 4.16376)">
   <path d="m48.09,145.43c21.98,-2.22 38.44,-20.69 58.31,-30.61c20.77,-10.45 46.27,-11.93 61.82,-29.66c16.06,-18.37 22.88,-44.12 24.29,-68.82c1.41,-24.17 -4.11,-48.97 -16.16,-69.66c-11.24,-19.31 -31.61,-29.55 -49.28,-42.64c-15.96,-11.82 -30.91,-25.65 -49.78,-30.61c-18.97,-4.96 -38.44,-0.53 -57.81,2.43c-20.88,3.38 -44.96,1.27 -60.52,16.25c-15.56,14.99 -15.76,40.42 -20.47,62.06c-4.22,19.31 -2.91,38.74 -5.42,58.37c-3.41,26.39 -22.68,53.51 -12.04,77.58c10.24,23.11 40.14,27.23 62.63,36.94c20.88,9.08 41.95,20.58 64.43,18.37" fill="#2c46c1" id="svg_1" transform="translate(-3.84 -3.84) scale(0.99 0.99)"/>
  </g>
  <g id="SVGRepo_tracerCarrier" stroke="#CCCCCC" stroke-linecap="round" stroke-linejoin="round" stroke-width="0.29"/>
 </g>
</svg>